<svg width="344" height="140" viewBox="0 0 344 140" fill="none" xmlns="http://www.w3.org/2000/svg">
<g clip-path="url(#clip0_1_4)">
<path d="M337.04 139.4C325.27 138.29 314.17 137 303.03 136.22C268.79 133.83 234.57 131.03 200.28 129.54C170 128.22 139.64 127.92 109.32 128.12C73.97 128.35 38.73 130.94 3.79 136.71C2.51 136.92 0.420001 138.06 0.0300012 135.83C-0.349999 133.6 1.94 134 3.26 133.74C39.89 126.54 76.93 123.12 114.17 121.28C167.24 118.65 220.3 119.41 273.34 121.58C294.65 122.45 315.92 124.04 337.21 125.35C341.04 125.59 343.55 128.77 343.29 132.75C343.03 136.81 340.21 139.5 337.02 139.4H337.04Z" fill="url(#paint0_linear_1_4)"/>
<path d="M260.1 104.74C257.81 104.61 256.51 103.58 255.13 102.03C249.62 95.8 249.85 88.6 252.19 81.58C255.24 72.45 258.88 63.47 262.86 54.7C269.24 40.65 276.83 27.23 285.76 14.62C288.2 11.17 291.2 8.11999 293.96 4.90999C295.34 3.30999 296.95 3.33999 298.64 4.42999C302.18 6.70999 304.87 9.74999 306.17 13.76C306.49 14.76 306.17 16.63 305.43 17.21C293.6 26.61 285.08 38.68 277.49 51.49C274.94 55.78 272.77 60.29 270.48 64.73C269.77 66.11 269.25 67.59 268.94 69.19C271.48 66.18 273.78 62.91 276.62 60.21C280.58 56.44 284.79 52.9 289.2 49.67C291.2 48.21 293.93 47.76 296.33 46.85C298.83 45.9 300.46 47.12 301.8 49.06C305.42 54.31 304.54 59.77 302.02 64.97C298.79 71.62 293.98 76.76 286.6 79.01C286.07 79.17 285.39 80.39 285.53 80.93C288.34 91.83 293.2 101.52 302.37 108.52C303.85 109.65 303.82 110.4 302.64 111.66C296.55 118.12 287.41 117.01 283.41 109.16C279.92 102.32 278.68 94.81 277.33 87.35C276.83 84.57 276.58 81.74 276.04 78.97C275.74 77.44 276.23 76.64 277.42 75.65C282.14 71.71 286.94 67.82 291.21 63.41C293.44 61.11 294.85 57.89 296.17 54.88C297.15 52.64 296.12 51.7 293.73 52.48C291.94 53.07 290.08 53.87 288.65 55.05C274.63 66.61 263.63 80.17 260.59 98.78C260.29 100.65 260.28 102.56 260.11 104.73L260.1 104.74Z" fill="url(#paint1_linear_1_4)"/>
<path d="M70.32 109.96C64.19 108.98 60.22 105.38 57.14 100.64C56.78 100.09 57.19 98.9 57.47 98.08C61.08 87.61 64.74 77.15 68.38 66.69C68.59 66.08 68.71 65.43 68.8 65.06C66.95 63.6 65.17 62.38 63.63 60.92C62.35 59.7 62.36 58.44 64.37 57.8C66.11 57.24 67.8 56.41 69.58 56.09C71.71 55.7 72.61 54.52 73.13 52.54C75.01 45.37 77.03 38.25 78.96 31.09C79.24 30.06 79.32 28.97 79.52 27.76C77.84 27.46 76.29 27.3 74.79 26.9C70.23 25.71 68.01 21.89 69.05 17.33C69.35 16.02 69.85 15.36 71.39 15.41C85.44 15.89 99.28 13.69 113.13 11.79C114.53 11.6 115.93 11.39 117.33 11.18C122.26 10.45 124.57 11.58 126.84 16.04C127.65 17.64 128.19 19.38 128.93 21.26C128.1 21.42 127.64 21.6 127.19 21.58C118.15 21.14 109.24 22.27 100.4 24C99.46 24.18 98.19 24.83 97.86 25.6C94.24 34 90.78 42.46 86.98 51.63C89.36 51.25 91.01 50.95 92.66 50.73C96.12 50.27 99.58 49.59 103.05 49.5C108.64 49.34 112.36 54.31 110.84 59.67C110.68 60.25 109.55 61.01 108.93 60.95C100.39 60.2 92.24 62.47 83.99 64.02C82.43 64.31 81.85 65.22 81.36 66.59C76.51 80.11 72.71 93.89 70.67 108.13C70.6 108.61 70.47 109.09 70.3 109.94L70.32 109.96Z" fill="url(#paint2_linear_1_4)"/>
<path d="M130 107.08C128.62 106.62 127.37 106.57 126.67 105.92C123.09 102.59 119.7 99.28 119.45 93.73C119.12 86.19 120.48 78.97 122.48 71.83C128.4 50.63 135.61 29.91 145.95 10.4C147.58 7.32 149.67 4.48 151.47 1.49C152.29 0.119998 153.34 -0.400002 154.78 0.319998C158.19 2.03 161.58 3.78 164.95 5.58C166.5 6.41 166.41 7.42 165.35 8.78C146.66 32.63 137.07 60.36 131.16 89.6C130.21 94.29 130.34 99.19 130 104C129.94 104.89 130 105.79 130 107.09V107.08Z" fill="url(#paint3_linear_1_4)"/>
<path d="M194.25 61.97C193.79 80.47 181.48 96.71 163.99 101.51C159.08 102.86 153.43 100.4 150.1 95.43C146.28 89.73 145.8 83.37 147.11 76.94C149.8 63.75 156.48 53.05 167.74 45.4C168.08 45.17 168.42 44.91 168.79 44.73C177.57 40.37 179.05 40.99 184.23 48.41C185.06 49.61 185.79 50.28 187.39 50.22C190.11 50.11 192.08 51.59 192.79 54.18C193.49 56.72 193.78 59.37 194.25 61.97ZM157.96 88.44C158.53 90.67 159.01 92.92 159.7 95.12C160.13 96.49 161.14 97.08 162.63 96.42C164.59 95.54 166.71 94.91 168.53 93.81C181.72 85.81 186.55 67.67 184.35 55.66C183.96 53.53 183.03 52.98 180.92 53.97C173.07 57.61 167.81 63.81 163.86 71.21C161 76.56 158.47 82.1 157.98 88.45L157.96 88.44Z" fill="url(#paint4_linear_1_4)"/>
<path d="M232.46 65.74C234.27 63.67 236.22 61.9 237.58 59.76C238.84 57.78 239.84 55.47 240.27 53.18C240.78 50.48 239.13 49.08 236.54 49.98C234.15 50.81 231.74 52 229.77 53.58C218.43 62.72 213.24 74.55 214.88 89.16C214.99 90.13 215.31 91.11 215.71 92.02C216.93 94.84 218.16 95.6 220.96 94.44C225.56 92.54 230.01 90.29 234.48 88.1C235.95 87.38 237.28 86.38 238.69 85.49C240.19 86.87 240.51 88.22 239 89.42C234.8 92.79 230.68 96.31 226.22 99.33C219.25 104.06 213.55 101.47 208.6 96.39C200.72 88.32 199.34 78.48 202.8 68.13C207.1 55.28 215.64 46.46 229.16 43.32C231.85 42.69 234.82 42.77 237.59 43.1C243.06 43.75 246.39 47.36 246.97 52.85C247.53 58.17 246.14 62.96 242.49 66.92C239.28 70.41 235.12 69.89 232.45 65.74H232.46Z" fill="url(#paint5_linear_1_4)"/>
</g>
<defs>
<linearGradient id="paint0_linear_1_4" x1="171.648" y1="119.608" x2="171.648" y2="139.403" gradientUnits="userSpaceOnUse">
<stop stop-color="#5A6BFF"/>
<stop offset="0.59" stop-color="#2AC2FF"/>
<stop offset="1" stop-color="#08FFFF"/>
</linearGradient>
<linearGradient id="paint1_linear_1_4" x1="278.46" y1="3.65414" x2="278.46" y2="115.861" gradientUnits="userSpaceOnUse">
<stop stop-color="#5A6BFF"/>
<stop offset="0.59" stop-color="#2AC2FF"/>
<stop offset="1" stop-color="#08FFFF"/>
</linearGradient>
<linearGradient id="paint2_linear_1_4" x1="92.9645" y1="10.9751" x2="92.9645" y2="109.96" gradientUnits="userSpaceOnUse">
<stop stop-color="#5A6BFF"/>
<stop offset="0.59" stop-color="#2AC2FF"/>
<stop offset="1" stop-color="#08FFFF"/>
</linearGradient>
<linearGradient id="paint3_linear_1_4" x1="142.766" y1="-0.0038147" x2="142.766" y2="107.09" gradientUnits="userSpaceOnUse">
<stop stop-color="#5A6BFF"/>
<stop offset="0.59" stop-color="#2AC2FF"/>
<stop offset="1" stop-color="#08FFFF"/>
</linearGradient>
<linearGradient id="paint4_linear_1_4" x1="170.352" y1="42.0039" x2="170.352" y2="101.876" gradientUnits="userSpaceOnUse">
<stop stop-color="#5A6BFF"/>
<stop offset="0.59" stop-color="#2AC2FF"/>
<stop offset="1" stop-color="#08FFFF"/>
</linearGradient>
<linearGradient id="paint5_linear_1_4" x1="224.052" y1="42.8481" x2="224.052" y2="101.819" gradientUnits="userSpaceOnUse">
<stop stop-color="#5A6BFF"/>
<stop offset="0.59" stop-color="#2AC2FF"/>
<stop offset="1" stop-color="#08FFFF"/>
</linearGradient>
<clipPath id="clip0_1_4">
<rect width="343.33" height="139.41" fill="white"/>
</clipPath>
</defs>
</svg>
